{
    "asset" : {
        "generator" : "Khronos glTF Blender I/O v1.6.16",
        "version" : "2.0"
    },
    "scene" : 0,
    "scenes" : [
        {
            "name" : "Scene",
            "nodes" : [
                1
            ]
        }
    ],
    "nodes" : [
        {
            "mesh" : 0,
            "name" : "defaultobject"
        },
        {
            "children" : [
                0
            ],
            "name" : "matBall.obj"
        }
    ],
    "materials" : [
        {
            "name" : "None",
            "pbrMetallicRoughness" : {
                "baseColorFactor" : [
                    0.6000000238418579,
                    0.6000000238418579,
                    0.6000000238418579,
                    1
                ],
                "metallicFactor" : 0
            }
        }
    ],
    "meshes" : [
        {
            "name" : "defaultobject",
            "primitives" : [
                {
                    "attributes" : {
                        "POSITION" : 0,
                        "NORMAL" : 1,
                        "TANGENT" : 2,
                        "TEXCOORD_0" : 3
                    },
                    "indices" : 4,
                    "material" : 0
                }
            ]
        }
    ],
    "accessors" : [
        {
            "bufferView" : 0,
            "componentType" : 5126,
            "count" : 41451,
            "max" : [
                0.9885140061378479,
                0.9225990176200867,
                0.9915210008621216
            ],
            "min" : [
                -0.987405002117157,
                -1.0281310081481934,
                -0.8447030186653137
            ],
            "type" : "VEC3"
        },
        {
            "bufferView" : 1,
            "componentType" : 5126,
            "count" : 41451,
            "type" : "VEC3"
        },
        {
            "bufferView" : 2,
            "componentType" : 5126,
            "count" : 41451,
            "type" : "VEC4"
        },
        {
            "bufferView" : 3,
            "componentType" : 5126,
            "count" : 41451,
            "type" : "VEC2"
        },
        {
            "bufferView" : 4,
            "componentType" : 5123,
            "count" : 203496,
            "type" : "SCALAR"
        }
    ],
    "bufferViews" : [
        {
            "buffer" : 0,
            "byteLength" : 497412,
            "byteOffset" : 0
        },
        {
            "buffer" : 0,
            "byteLength" : 497412,
            "byteOffset" : 497412
        },
        {
            "buffer" : 0,
            "byteLength" : 663216,
            "byteOffset" : 994824
        },
        {
            "buffer" : 0,
            "byteLength" : 331608,
            "byteOffset" : 1658040
        },
        {
            "buffer" : 0,
            "byteLength" : 406992,
            "byteOffset" : 1989648
        }
    ],
    "buffers" : [
        {
            "byteLength" : 2396640,
            "uri" : "matBall.bin"
        }
    ]
}
