{
    "asset" : {
        "generator" : "Khronos glTF Blender I/O v1.6.16",
        "version" : "2.0"
    },
    "scene" : 0,
    "scenes" : [
        {
            "name" : "Scene",
            "nodes" : [
                0
            ]
        }
    ],
    "nodes" : [
        {
            "mesh" : 0,
            "name" : "Octane",
            "translation" : [
                -0.06045391410589218,
                0.1689734011888504,
                0
            ]
        }
    ],
    "materials" : [
        {
            "alphaMode" : "BLEND",
            "doubleSided" : true,
            "name" : "Octane Chassis",
            "pbrMetallicRoughness" : {
                "metallicFactor" : 0.7999999523162842,
                "roughnessFactor" : 0.34090909361839294
            }
        },
        {
            "alphaMode" : "BLEND",
            "doubleSided" : true,
            "name" : "Octane Body",
            "pbrMetallicRoughness" : {
                "roughnessFactor" : 0.24972699582576752
            }
        },
        {
            "doubleSided" : true,
            "name" : "Window",
            "pbrMetallicRoughness" : {
                "baseColorFactor" : [
                    0,
                    0,
                    0,
                    1
                ],
                "metallicFactor" : 0,
                "roughnessFactor" : 0.11818182468414307
            }
        },
        {
            "doubleSided" : true,
            "name" : "Paint",
            "pbrMetallicRoughness" : {
                "baseColorFactor" : [
                    0.008594469167292118,
                    0.008594469167292118,
                    0.008594469167292118,
                    1
                ],
                "metallicFactor" : 0.4790908992290497,
                "roughnessFactor" : 0.4318181872367859
            }
        },
        {
            "doubleSided" : true,
            "name" : "Dieci Rim",
            "pbrMetallicRoughness" : {
                "baseColorFactor" : [
                    0.012029283680021763,
                    0.012029283680021763,
                    0.012029283680021763,
                    1
                ],
                "metallicFactor" : 0.7770000100135803,
                "roughnessFactor" : 0.10918182134628296
            }
        },
        {
            "alphaMode" : "BLEND",
            "doubleSided" : true,
            "name" : "Dieci Tread",
            "pbrMetallicRoughness" : {
                "metallicFactor" : 0.4909090995788574,
                "roughnessFactor" : 0.3363635838031769
            }
        }
    ],
    "meshes" : [
        {
            "name" : "Body_Octane_PremiumSkin_SK.md.002",
            "primitives" : [
                {
                    "attributes" : {
                        "POSITION" : 0,
                        "NORMAL" : 1,
                        "TANGENT" : 2,
                        "TEXCOORD_0" : 3,
                        "TEXCOORD_1" : 4,
                        "TEXCOORD_2" : 5
                    },
                    "indices" : 6,
                    "material" : 0
                },
                {
                    "attributes" : {
                        "POSITION" : 7,
                        "NORMAL" : 8,
                        "TANGENT" : 9,
                        "TEXCOORD_0" : 10,
                        "TEXCOORD_1" : 11,
                        "TEXCOORD_2" : 12
                    },
                    "indices" : 13,
                    "material" : 1
                },
                {
                    "attributes" : {
                        "POSITION" : 14,
                        "NORMAL" : 15,
                        "TANGENT" : 16,
                        "TEXCOORD_0" : 17,
                        "TEXCOORD_1" : 18,
                        "TEXCOORD_2" : 19
                    },
                    "indices" : 20,
                    "material" : 2
                },
                {
                    "attributes" : {
                        "POSITION" : 21,
                        "NORMAL" : 22,
                        "TANGENT" : 23,
                        "TEXCOORD_0" : 24,
                        "TEXCOORD_1" : 25,
                        "TEXCOORD_2" : 26
                    },
                    "indices" : 27,
                    "material" : 3
                },
                {
                    "attributes" : {
                        "POSITION" : 28,
                        "NORMAL" : 29,
                        "TANGENT" : 30,
                        "TEXCOORD_0" : 31,
                        "TEXCOORD_1" : 32,
                        "TEXCOORD_2" : 33
                    },
                    "indices" : 34,
                    "material" : 4
                },
                {
                    "attributes" : {
                        "POSITION" : 35,
                        "NORMAL" : 36,
                        "TANGENT" : 37,
                        "TEXCOORD_0" : 38,
                        "TEXCOORD_1" : 39,
                        "TEXCOORD_2" : 40
                    },
                    "indices" : 41,
                    "material" : 5
                }
            ]
        }
    ],
    "accessors" : [
        {
            "bufferView" : 0,
            "componentType" : 5126,
            "count" : 14992,
            "max" : [
                0.7956200242042542,
                0.39248618483543396,
                0.31682872772216797
            ],
            "min" : [
                -0.5162429213523865,
                -0.11955335736274719,
                -0.31641894578933716
            ],
            "type" : "VEC3"
        },
        {
            "bufferView" : 1,
            "componentType" : 5126,
            "count" : 14992,
            "type" : "VEC3"
        },
        {
            "bufferView" : 2,
            "componentType" : 5126,
            "count" : 14992,
            "type" : "VEC4"
        },
        {
            "bufferView" : 3,
            "componentType" : 5126,
            "count" : 14992,
            "type" : "VEC2"
        },
        {
            "bufferView" : 4,
            "componentType" : 5126,
            "count" : 14992,
            "type" : "VEC2"
        },
        {
            "bufferView" : 5,
            "componentType" : 5126,
            "count" : 14992,
            "type" : "VEC2"
        },
        {
            "bufferView" : 6,
            "componentType" : 5123,
            "count" : 48468,
            "type" : "SCALAR"
        },
        {
            "bufferView" : 7,
            "componentType" : 5126,
            "count" : 5322,
            "max" : [
                0.7448121905326843,
                0.43495890498161316,
                0.352250874042511
            ],
            "min" : [
                -0.6031845211982727,
                -0.09319056570529938,
                -0.36066216230392456
            ],
            "type" : "VEC3"
        },
        {
            "bufferView" : 8,
            "componentType" : 5126,
            "count" : 5322,
            "type" : "VEC3"
        },
        {
            "bufferView" : 9,
            "componentType" : 5126,
            "count" : 5322,
            "type" : "VEC4"
        },
        {
            "bufferView" : 10,
            "componentType" : 5126,
            "count" : 5322,
            "type" : "VEC2"
        },
        {
            "bufferView" : 11,
            "componentType" : 5126,
            "count" : 5322,
            "type" : "VEC2"
        },
        {
            "bufferView" : 12,
            "componentType" : 5126,
            "count" : 5322,
            "type" : "VEC2"
        },
        {
            "bufferView" : 13,
            "componentType" : 5123,
            "count" : 23574,
            "type" : "SCALAR"
        },
        {
            "bufferView" : 14,
            "componentType" : 5126,
            "count" : 97,
            "max" : [
                0.45489680767059326,
                0.2800459563732147,
                0.1726767122745514
            ],
            "min" : [
                0.019309645518660545,
                0.1393599659204483,
                -0.17267677187919617
            ],
            "type" : "VEC3"
        },
        {
            "bufferView" : 15,
            "componentType" : 5126,
            "count" : 97,
            "type" : "VEC3"
        },
        {
            "bufferView" : 16,
            "componentType" : 5126,
            "count" : 97,
            "type" : "VEC4"
        },
        {
            "bufferView" : 17,
            "componentType" : 5126,
            "count" : 97,
            "type" : "VEC2"
        },
        {
            "bufferView" : 18,
            "componentType" : 5126,
            "count" : 97,
            "type" : "VEC2"
        },
        {
            "bufferView" : 19,
            "componentType" : 5126,
            "count" : 97,
            "type" : "VEC2"
        },
        {
            "bufferView" : 20,
            "componentType" : 5123,
            "count" : 336,
            "type" : "SCALAR"
        },
        {
            "bufferView" : 21,
            "componentType" : 5126,
            "count" : 2943,
            "max" : [
                0.7445968389511108,
                0.41943225264549255,
                0.3625328540802002
            ],
            "min" : [
                -0.578357458114624,
                -0.09354055672883987,
                -0.3621232211589813
            ],
            "type" : "VEC3"
        },
        {
            "bufferView" : 22,
            "componentType" : 5126,
            "count" : 2943,
            "type" : "VEC3"
        },
        {
            "bufferView" : 23,
            "componentType" : 5126,
            "count" : 2943,
            "type" : "VEC4"
        },
        {
            "bufferView" : 24,
            "componentType" : 5126,
            "count" : 2943,
            "type" : "VEC2"
        },
        {
            "bufferView" : 25,
            "componentType" : 5126,
            "count" : 2943,
            "type" : "VEC2"
        },
        {
            "bufferView" : 26,
            "componentType" : 5126,
            "count" : 2943,
            "type" : "VEC2"
        },
        {
            "bufferView" : 27,
            "componentType" : 5123,
            "count" : 13050,
            "type" : "SCALAR"
        },
        {
            "bufferView" : 28,
            "componentType" : 5126,
            "count" : 8224,
            "max" : [
                0.6003085970878601,
                0.057966362684965134,
                0.3464202284812927
            ],
            "min" : [
                -0.44974619150161743,
                -0.14746178686618805,
                -0.34860458970069885
            ],
            "type" : "VEC3"
        },
        {
            "bufferView" : 29,
            "componentType" : 5126,
            "count" : 8224,
            "type" : "VEC3"
        },
        {
            "bufferView" : 30,
            "componentType" : 5126,
            "count" : 8224,
            "type" : "VEC4"
        },
        {
            "bufferView" : 31,
            "componentType" : 5126,
            "count" : 8224,
            "type" : "VEC2"
        },
        {
            "bufferView" : 32,
            "componentType" : 5126,
            "count" : 8224,
            "type" : "VEC2"
        },
        {
            "bufferView" : 33,
            "componentType" : 5126,
            "count" : 8224,
            "type" : "VEC2"
        },
        {
            "bufferView" : 34,
            "componentType" : 5123,
            "count" : 33216,
            "type" : "SCALAR"
        },
        {
            "bufferView" : 35,
            "componentType" : 5126,
            "count" : 2428,
            "max" : [
                0.6369726657867432,
                0.09981876611709595,
                0.34746554493904114
            ],
            "min" : [
                -0.49182426929473877,
                -0.18633991479873657,
                -0.3496498763561249
            ],
            "type" : "VEC3"
        },
        {
            "bufferView" : 36,
            "componentType" : 5126,
            "count" : 2428,
            "type" : "VEC3"
        },
        {
            "bufferView" : 37,
            "componentType" : 5126,
            "count" : 2428,
            "type" : "VEC4"
        },
        {
            "bufferView" : 38,
            "componentType" : 5126,
            "count" : 2428,
            "type" : "VEC2"
        },
        {
            "bufferView" : 39,
            "componentType" : 5126,
            "count" : 2428,
            "type" : "VEC2"
        },
        {
            "bufferView" : 40,
            "componentType" : 5126,
            "count" : 2428,
            "type" : "VEC2"
        },
        {
            "bufferView" : 41,
            "componentType" : 5123,
            "count" : 12288,
            "type" : "SCALAR"
        }
    ],
    "bufferViews" : [
        {
            "buffer" : 0,
            "byteLength" : 179904,
            "byteOffset" : 0
        },
        {
            "buffer" : 0,
            "byteLength" : 179904,
            "byteOffset" : 179904
        },
        {
            "buffer" : 0,
            "byteLength" : 239872,
            "byteOffset" : 359808
        },
        {
            "buffer" : 0,
            "byteLength" : 119936,
            "byteOffset" : 599680
        },
        {
            "buffer" : 0,
            "byteLength" : 119936,
            "byteOffset" : 719616
        },
        {
            "buffer" : 0,
            "byteLength" : 119936,
            "byteOffset" : 839552
        },
        {
            "buffer" : 0,
            "byteLength" : 96936,
            "byteOffset" : 959488
        },
        {
            "buffer" : 0,
            "byteLength" : 63864,
            "byteOffset" : 1056424
        },
        {
            "buffer" : 0,
            "byteLength" : 63864,
            "byteOffset" : 1120288
        },
        {
            "buffer" : 0,
            "byteLength" : 85152,
            "byteOffset" : 1184152
        },
        {
            "buffer" : 0,
            "byteLength" : 42576,
            "byteOffset" : 1269304
        },
        {
            "buffer" : 0,
            "byteLength" : 42576,
            "byteOffset" : 1311880
        },
        {
            "buffer" : 0,
            "byteLength" : 42576,
            "byteOffset" : 1354456
        },
        {
            "buffer" : 0,
            "byteLength" : 47148,
            "byteOffset" : 1397032
        },
        {
            "buffer" : 0,
            "byteLength" : 1164,
            "byteOffset" : 1444180
        },
        {
            "buffer" : 0,
            "byteLength" : 1164,
            "byteOffset" : 1445344
        },
        {
            "buffer" : 0,
            "byteLength" : 1552,
            "byteOffset" : 1446508
        },
        {
            "buffer" : 0,
            "byteLength" : 776,
            "byteOffset" : 1448060
        },
        {
            "buffer" : 0,
            "byteLength" : 776,
            "byteOffset" : 1448836
        },
        {
            "buffer" : 0,
            "byteLength" : 776,
            "byteOffset" : 1449612
        },
        {
            "buffer" : 0,
            "byteLength" : 672,
            "byteOffset" : 1450388
        },
        {
            "buffer" : 0,
            "byteLength" : 35316,
            "byteOffset" : 1451060
        },
        {
            "buffer" : 0,
            "byteLength" : 35316,
            "byteOffset" : 1486376
        },
        {
            "buffer" : 0,
            "byteLength" : 47088,
            "byteOffset" : 1521692
        },
        {
            "buffer" : 0,
            "byteLength" : 23544,
            "byteOffset" : 1568780
        },
        {
            "buffer" : 0,
            "byteLength" : 23544,
            "byteOffset" : 1592324
        },
        {
            "buffer" : 0,
            "byteLength" : 23544,
            "byteOffset" : 1615868
        },
        {
            "buffer" : 0,
            "byteLength" : 26100,
            "byteOffset" : 1639412
        },
        {
            "buffer" : 0,
            "byteLength" : 98688,
            "byteOffset" : 1665512
        },
        {
            "buffer" : 0,
            "byteLength" : 98688,
            "byteOffset" : 1764200
        },
        {
            "buffer" : 0,
            "byteLength" : 131584,
            "byteOffset" : 1862888
        },
        {
            "buffer" : 0,
            "byteLength" : 65792,
            "byteOffset" : 1994472
        },
        {
            "buffer" : 0,
            "byteLength" : 65792,
            "byteOffset" : 2060264
        },
        {
            "buffer" : 0,
            "byteLength" : 65792,
            "byteOffset" : 2126056
        },
        {
            "buffer" : 0,
            "byteLength" : 66432,
            "byteOffset" : 2191848
        },
        {
            "buffer" : 0,
            "byteLength" : 29136,
            "byteOffset" : 2258280
        },
        {
            "buffer" : 0,
            "byteLength" : 29136,
            "byteOffset" : 2287416
        },
        {
            "buffer" : 0,
            "byteLength" : 38848,
            "byteOffset" : 2316552
        },
        {
            "buffer" : 0,
            "byteLength" : 19424,
            "byteOffset" : 2355400
        },
        {
            "buffer" : 0,
            "byteLength" : 19424,
            "byteOffset" : 2374824
        },
        {
            "buffer" : 0,
            "byteLength" : 19424,
            "byteOffset" : 2394248
        },
        {
            "buffer" : 0,
            "byteLength" : 24576,
            "byteOffset" : 2413672
        }
    ],
    "buffers" : [
        {
            "byteLength" : 2438248,
            "uri" : "octane.bin"
        }
    ]
}
